<?xml version="1.0" encoding="UTF-8"?><svg id="_レイヤー_2" xmlns="http://www.w3.org/2000/svg" viewBox="0 0 217.89 126.94"><defs><style>.cls-1{letter-spacing:.1em;}.cls-2{letter-spacing:.07em;}.cls-3{font-family:SourceSansRoman-Bold, 'Source Sans Variable';font-size:11px;font-variation-settings:'wght' 700;font-weight:700;}.cls-3,.cls-4{fill:#d6eaf8;}.cls-5{font-family:Baskerville-SemiBold, Baskerville;font-size:25px;font-weight:600;}.cls-5,.cls-6{fill:#000637;}.cls-7{letter-spacing:.06em;}.cls-8{letter-spacing:.09em;}.cls-9{letter-spacing:.09em;}.cls-10{letter-spacing:.03em;}.cls-11{fill:#1088c4;}.cls-11,.cls-4,.cls-6{stroke-width:0px;}</style></defs><g id="_レイヤー_2-2"><path class="cls-6" d="M81.98,8.11s4.45-3.12,4.9-4.45c0,0,67.63,20.21,81.07,42.54,0,0-32.74-30.51-85.97-38.09Z"/><path class="cls-6" d="M103.04,4.45s4.45-3.12,4.9-4.45c0,0,47.57,18.25,61.01,40.58,0,0-15.47-22-65.91-36.13Z"/><path class="cls-4" d="M154.13,15.72l6.25,4.26c.13.09.2.25.18.41l-.94,5.99c-.05.35-.49.48-.72.22-1.2-1.34-3.94-4.32-5.24-5.22-.12-.08-.19-.2-.19-.34v-4.97c0-.34.38-.54.65-.35Z"/><path class="cls-11" d="M164.05,25.49l4.62,3.57c.17.13.27.35.25.57l-.39,4.73c-.04.54-.7.79-1.09.42l-5.3-5c-.18-.17-.25-.43-.17-.67l1.07-3.29c.14-.43.66-.59,1.01-.31Z"/><path class="cls-4" d="M30.14,57.74c9.45,4.39,21.72,5.11,31.99,5.6,19.5.94,38.16-4.56,57.54-4.54,16.14.01,32.46,2.42,47.62,8.07,6.59,2.46,12.96,5.54,18.92,9.29-9.84-6.18-21.51-8.05-32.96-9.11-34.29-3.17-68.52,6.46-102.45-1.48-7.36-1.72-13.83-4.66-20.66-7.83Z"/><path class="cls-11" d="M91.03,76.15s62.35-19.36,96.76,4.09c0,0-46.86-13.36-96.76-4.09Z"/><text class="cls-5" transform="translate(.35 105.57)"><tspan class="cls-2" x="0" y="0">DREAM C</tspan><tspan class="cls-10" x="133.49" y="0">R</tspan><tspan class="cls-2" x="152.72" y="0">UISE</tspan></text><polygon class="cls-4" points="79.66 122.59 79.66 119 0 120.79 79.66 122.59"/><polygon class="cls-4" points="138.23 122.59 138.23 119 217.89 120.79 138.23 122.59"/><text class="cls-3" transform="translate(87.36 123.78)"><tspan class="cls-7" x="0" y="0">T</tspan><tspan class="cls-9" x="6.78" y="0">A</tspan><tspan class="cls-1" x="14.09" y="0">IW</tspan><tspan class="cls-8" x="28.54" y="0">A</tspan><tspan class="cls-1" x="35.86" y="0">N</tspan></text><path class="cls-6" d="M83.41,57.57c-2.95-5.26-24.84-43.71-40.52-55.36-.77-.57-.26-1.8.69-1.65,16,2.47,75.22,14.83,140.4,68.56.84.69,0,2.02-.98,1.55-15.83-7.52-55.4-22.8-98.57-12.66-.4.09-.81-.08-1.01-.44Z"/></g></svg>