<svg width="750" height="109" viewBox="0 0 750 109" fill="none" xmlns="http://www.w3.org/2000/svg">
<path d="M750 0C705.043 21.2672 646.67 24.7552 597.811 27.1289C505.042 31.6827 416.27 5.03822 324.071 5.13511C247.287 5.18356 169.647 16.8587 97.5248 44.2299C66.1736 56.1473 35.869 71.0682 7.51501 89.2349C54.3276 59.2962 109.846 50.237 164.318 45.1019C327.449 29.745 490.294 76.3971 651.712 37.9321C686.727 29.5996 717.507 15.3569 750 0Z" fill="#D6EAF8"/>
<path d="M460.324 89.1864C460.324 89.1864 163.701 -4.60231 -0.000274658 109C-0.000274658 109 222.931 44.2783 460.324 89.1864Z" fill="#1088C4"/>
</svg>
