<svg width="750" height="109" viewBox="0 0 750 109" fill="none" xmlns="http://www.w3.org/2000/svg">
<path d="M0 0C44.9573 21.2672 103.33 24.7552 152.189 27.1289C244.958 31.6827 333.731 5.03822 425.929 5.13511C502.713 5.18356 580.353 16.8587 652.475 44.2299C683.826 56.1473 714.131 71.0682 742.485 89.2349C695.672 59.2962 640.154 50.237 585.682 45.1019C422.551 29.745 259.706 76.3971 98.2876 37.9321C63.2732 29.5996 32.4929 15.3569 0 0Z" fill="#D6EAF8"/>
<path d="M289.676 89.1864C289.676 89.1864 586.299 -4.60231 750 109C750 109 527.069 44.2783 289.676 89.1864Z" fill="#1088C4"/>
</svg>
