<svg width="363" height="53" viewBox="0 0 363 53" fill="none" xmlns="http://www.w3.org/2000/svg">
<path d="M0 0C21.7593 10.2933 50.0119 11.9815 73.6594 13.1304C118.56 15.3345 161.526 2.4385 206.15 2.4854C243.313 2.50884 280.891 8.15962 315.798 21.4073C330.972 27.1753 345.639 34.397 359.363 43.1897C336.706 28.6994 309.834 24.3147 283.47 21.8293C204.515 14.3966 125.698 36.9762 47.5712 18.3591C30.6242 14.3262 15.7266 7.43276 0 0Z" fill="#D6EAF8" fill-opacity="0.5"/>
<path d="M140.203 43.1664C140.203 43.1664 283.769 -2.22735 363 52.7563C363 52.7563 255.102 21.4309 140.203 43.1664Z" fill="#1088C4" fill-opacity="0.5"/>
</svg>
