<svg width="582" height="122" viewBox="0 0 582 122" fill="none" xmlns="http://www.w3.org/2000/svg">
<path d="M0 69C21.7593 79.2933 50.0119 80.9815 73.6594 82.1304C118.56 84.3345 161.526 71.4385 206.15 71.4854C243.313 71.5088 280.891 77.1596 315.798 90.4073C330.972 96.1753 345.639 103.397 359.363 112.19C336.706 97.6994 309.834 93.3147 283.47 90.8293C204.515 83.3966 125.698 105.976 47.5712 87.3591C30.6242 83.3262 15.7266 76.4328 0 69Z" fill="#D6EAF8" fill-opacity="0.5"/>
<path d="M140.203 112.166C140.203 112.166 283.769 66.7727 363 121.756C363 121.756 255.102 90.4309 140.203 112.166Z" fill="#1088C4" fill-opacity="0.5"/>
<path d="M132.784 22.6H169.408L171.424 20.104C171.424 20.104 173.728 21.88 175.216 23.272C175.072 23.8 174.64 24.04 173.968 24.04H133.216L132.784 22.6ZM152.848 14.968L156.688 15.4C156.544 16.072 156.16 16.552 154.96 16.744V57.544C154.96 57.976 154.048 58.552 153.28 58.552H152.848V14.968ZM154.96 35.368C159.136 43.672 167.632 50.92 176.272 53.896L176.176 54.376C175.216 54.472 174.256 55.144 173.92 56.2C165.616 52.504 158.128 45.16 154.096 35.848L154.96 35.368ZM142.384 31.336C151.504 34.936 150.064 40.552 147.472 38.92C146.752 36.568 144.064 33.496 141.856 31.768L142.384 31.336ZM152.848 34.552L154.288 37.384C149.872 44.776 141.328 52.072 132.352 56.296L131.92 55.48C140.32 50.968 148.768 43.288 152.848 34.552ZM143.248 25.672L147.088 26.92C146.896 27.496 146.32 27.928 145.312 27.832C143.104 34.216 139.408 39.256 135.088 42.328L134.416 41.704C138.208 38.2 141.52 32.44 143.248 25.672ZM163.408 31.864C174.64 36.376 173.44 42.712 170.56 40.984C169.504 38.152 165.712 34.408 162.88 32.344L163.408 31.864ZM164.128 25.672L168.064 26.728C167.872 27.304 167.344 27.784 166.336 27.736C164.608 33.688 161.536 38.392 157.6 41.176L156.976 40.648C160.288 37.288 162.976 32.008 164.128 25.672ZM228.304 30.76C228.304 30.76 231.376 33.208 233.344 35.032C233.2 35.608 232.672 35.752 231.904 35.752H190.624L190.144 34.168H225.664L228.304 30.76ZM260.56 33.592C260.416 34.216 260.032 34.648 259.024 34.744V52.984C259.024 52.984 258.256 52.984 257.488 52.984H256.912V33.112L260.56 33.592ZM254.848 36.184C254.656 36.856 254.128 37.24 253.072 37.288C252.592 43.96 251.392 52.888 248.128 58.36L247.456 57.832C249.856 52.264 250.864 42.856 250.912 35.368L254.848 36.184ZM263.008 37.912C263.008 37.912 265.168 39.592 266.464 40.888C266.368 41.416 265.936 41.656 265.264 41.656H258.208V40.216H261.184L263.008 37.912ZM263.44 28.024C263.44 28.024 265.6 29.704 266.992 31.048C266.848 31.576 266.416 31.816 265.744 31.816H248.128L247.744 30.376H261.568L263.44 28.024ZM262.336 19.48C262.336 19.48 264.448 21.16 265.84 22.456C265.696 22.984 265.264 23.224 264.592 23.224H249.664L249.28 21.784H260.464L262.336 19.48ZM259.984 15.496C259.888 16.168 259.36 16.6 258.208 16.744V31.192H256.096V15.016L259.984 15.496ZM251.728 43.288C255.28 53.272 261.04 54.52 272.08 54.52C276.448 54.52 286.432 54.472 290.992 54.424V55.096C289.936 55.192 289.36 55.816 289.264 56.776C285.424 56.776 276.256 56.776 271.936 56.776C260.512 56.776 254.896 54.808 250.96 43.72L251.728 43.288ZM280.24 33.256L281.536 31.912L284.368 34.12C284.128 34.456 283.456 34.792 282.736 34.84V43.768C282.688 44.056 281.632 44.584 280.912 44.584H280.624V33.256H280.24ZM267.616 17.512C275.632 22.024 273.664 27.544 271.264 25.576C270.88 23.08 268.768 19.768 266.992 17.848L267.616 17.512ZM288.784 18.616C288.592 19.048 288.016 19.432 287.056 19.336C285.52 21.688 283.6 24.328 281.92 26.008L281.152 25.528C282.4 23.464 283.936 20.104 285.232 17.032L288.784 18.616ZM285.616 27.64L286.864 26.056L290.32 28.6C289.984 28.984 289.168 29.32 288.208 29.512V48.568C288.208 50.584 287.872 51.784 284.704 52.168C284.608 51.592 284.416 50.92 283.936 50.536C283.36 50.152 282.4 49.864 280.864 49.672V48.856C280.864 48.856 284.416 49.192 285.184 49.192C285.904 49.192 286.096 48.904 286.096 48.28V27.64H285.616ZM272.8 31.96L275.488 33.256H274.912V44.44C274.912 44.584 274.192 45.208 273.088 45.208H272.8V31.96ZM267.28 26.344L269.968 27.64H269.392V51.64C269.392 51.784 268.672 52.408 267.568 52.408H267.28V26.344ZM280.48 15.448C280.384 16.12 279.856 16.552 278.704 16.696V28.504H276.592V14.968L280.48 15.448ZM281.536 41.464V42.904H273.952V41.464H281.536ZM281.536 33.256V34.696H273.952V33.256H281.536ZM287.056 27.64V29.08H268.432V27.64H287.056ZM311.92 47.848C315.52 54.184 321.088 55 330.976 55C335.008 55 344.368 55 348.544 54.904V55.624C347.584 55.72 347.056 56.2 346.96 57.016C343.456 57.016 334.816 57.016 330.88 57.016C320.656 57.016 315.328 55.672 311.152 48.328L311.92 47.848ZM314.896 27.16C313.648 29.944 310.768 35.416 309.04 38.44H309.424L308.272 39.4L306.16 37.24C306.736 37 307.792 36.616 308.416 36.52L307.264 37.72C308.896 34.984 311.872 29.176 313.12 26.056L314.896 27.16ZM312.592 26.008L313.888 24.568L316.768 27.112C316.192 27.592 314.848 27.928 313.6 27.784L313.12 26.008H312.592ZM314.512 37.048L316.048 35.56L318.736 38.056C318.352 38.488 317.824 38.584 316.768 38.632C314.944 45.016 311.392 52.264 305.44 57.256L304.816 56.536C309.856 51.496 313.504 43.72 314.944 37.048H314.512ZM314.464 26.008V27.448H305.536L305.104 26.008H314.464ZM316.096 37.048V38.488H308.32L308.896 37.048H316.096ZM308.176 15.304C316.192 19.24 314.272 24.664 311.92 22.84C311.536 20.488 309.424 17.416 307.6 15.688L308.176 15.304ZM321.568 14.728C328.48 19 326.368 23.56 324.208 21.784C323.776 19.624 322.192 16.744 320.944 15.016L321.568 14.728ZM323.152 23.416C323.104 35.176 322.672 44.104 316.72 51.736L316.144 51.112C320.944 43.096 321.184 34.36 320.896 23.416H323.152ZM327.472 31.144L328.816 29.56L331.84 32.056C331.504 32.44 330.976 32.632 330.016 32.728C329.728 44.104 329.344 49.384 327.712 51.064C326.944 51.88 326.08 52.168 324.976 52.264C324.976 51.832 324.736 51.16 324.256 50.824C323.776 50.536 322.576 50.248 321.472 50.104L321.52 49.24C322.672 49.336 324.736 49.48 325.36 49.48C325.84 49.48 326.032 49.384 326.272 49.096C327.184 47.992 327.664 42.52 327.952 31.144H327.472ZM345.04 19.48C345.04 19.48 347.2 21.16 348.592 22.504C348.448 23.032 348.016 23.272 347.344 23.272H334.624V21.832H343.12L345.04 19.48ZM329.344 31.144V32.584H322.432V31.144H329.344ZM342.592 27.976L344.08 26.488L346.816 29.176C346.432 29.464 345.808 29.512 344.944 29.56C343.648 30.856 341.536 32.968 339.616 34.12H338.656C340.336 32.584 342.256 29.56 343.12 27.976H342.592ZM339.712 16.024C339.52 16.504 338.992 16.936 337.984 16.936C336.544 21.64 334.192 25.864 331.264 28.456L330.544 27.976C332.848 24.856 334.768 20.008 335.776 14.92L339.712 16.024ZM342.112 33.544C341.968 34.216 341.536 34.6 340.432 34.696V49C340.432 51.112 340.096 52.36 336.928 52.744C336.832 52.072 336.736 51.448 336.208 51.016C335.632 50.68 334.672 50.392 333.184 50.2V49.432C333.184 49.432 336.736 49.72 337.408 49.72C338.128 49.72 338.32 49.48 338.32 48.808V33.064L342.112 33.544ZM329.44 21.016C329.44 21.016 331.456 22.552 332.704 23.8C332.56 24.328 332.128 24.568 331.504 24.568H317.392L317.008 23.128H327.76L329.44 21.016ZM345.472 35.944C345.472 35.944 347.44 37.48 348.688 38.728C348.592 39.256 348.16 39.496 347.488 39.496H331.648L331.264 38.056H343.744L345.472 35.944ZM344.32 27.976V29.416H333.568L333.136 27.976H344.32ZM392.464 16.552C394.816 21.928 401.008 27.688 406.24 30.76L406.096 31.24C404.992 31.144 404.032 31.528 403.696 32.392C398.608 28.888 393.952 22.888 391.504 17.176L392.464 16.552ZM392.608 16.888C390.064 22.504 385.552 29.464 379.552 33.688L378.88 33.064C384.304 28.552 389.056 20.824 390.976 14.824L394.432 16.072C394.24 16.6 393.808 16.888 392.608 16.888ZM383.536 57.64C383.536 57.928 382.72 58.456 381.808 58.456H381.424V34.168L383.776 35.416H401.008V36.856H383.536V57.64ZM400.576 45.112V46.552H382.864V45.112H400.576ZM399.616 35.416L400.864 33.832L404.272 36.376C403.984 36.76 403.12 37.096 402.208 37.24V55.144C402.208 57.016 401.872 58.168 399.04 58.504C398.992 57.928 398.8 57.352 398.416 56.968C397.936 56.632 397.168 56.392 395.872 56.248V55.48C395.872 55.48 398.608 55.72 399.328 55.72C399.952 55.72 400.096 55.48 400.096 54.856V35.416H399.616ZM395.872 54.952C395.872 55.144 395.2 55.72 394.144 55.72H393.856V35.416H395.872V54.952ZM389.68 55.816C389.68 56.008 389.008 56.536 387.952 56.536H387.664V35.416H389.68V55.816ZM395.488 26.824C395.488 26.824 397.696 28.552 399.088 29.896C398.992 30.424 398.512 30.664 397.84 30.664H385.648L385.264 29.224H393.52L395.488 26.824ZM375.952 27.112L377.2 25.816L379.84 27.928C379.6 28.216 379.024 28.504 378.352 28.648V42.568C378.304 42.904 377.344 43.624 376.576 43.624H376.288V27.112H375.952ZM366.4 43.288C366.4 43.48 365.584 44.008 364.672 44.008H364.336V25.912L366.64 27.112H377.44V28.552H366.4V43.288ZM372.304 27.496V41.08L371.92 41.128L372.304 41.176V57.544C372.304 57.736 371.584 58.36 370.48 58.36H370.192V41.176L370.576 41.128L370.192 41.08V27.496H372.304ZM373.936 15.448C373.84 16.12 373.36 16.552 372.304 16.648V28.072H370.192V15.016L373.936 15.448ZM377.296 45.16C377.296 45.16 379.408 46.792 380.656 48.088C380.56 48.616 380.08 48.856 379.504 48.856H362.704L362.32 47.416H375.472L377.296 45.16ZM377.632 40.168V41.608H365.344V40.168H377.632ZM377.632 33.64V35.08H365.344V33.64H377.632ZM377.776 19.528C377.776 19.528 379.792 21.064 380.992 22.312C380.896 22.84 380.416 23.08 379.84 23.08H363.04L362.656 21.64H376.048L377.776 19.528ZM445.648 30.904C445.456 31.384 444.928 31.672 443.68 31.864V35.224C443.536 35.224 443.104 35.224 441.568 35.224V29.56L445.648 30.904ZM440.224 55.336C442.24 54.76 446.848 53.224 451.36 51.592L451.6 52.36C449.584 53.416 445.504 55.72 441.52 57.688L440.224 55.336ZM443.2 31.816L443.68 32.104V55.288L441.232 56.296L441.712 55.192C442.816 56.872 441.76 58.168 441.28 58.456L439.456 55.72C441.28 54.616 441.568 54.376 441.568 53.608V31.816H443.2ZM426.496 15.064C434.608 18.904 432.688 24.568 430.288 22.696C430 20.248 427.84 17.176 425.92 15.448L426.496 15.064ZM428.32 23.368C428.224 37.528 427.696 48.952 420.64 58.696L419.968 58.168C425.584 48.04 426.208 36.76 425.92 23.368H428.32ZM435.952 32.248V33.688H426.592V32.248H435.952ZM433.792 32.248L435.184 30.664L438.304 33.16C437.968 33.544 437.392 33.784 436.384 33.832C436.096 47.752 435.184 54.664 433.408 56.632C432.4 57.88 430.816 58.36 429.328 58.36C429.328 57.688 429.232 57.016 428.656 56.632C428.128 56.248 426.64 55.96 425.392 55.816L425.44 54.904C426.928 55.048 429.424 55.24 430.24 55.24C431.104 55.24 431.44 55.144 431.872 54.712C433.216 53.32 433.984 46.168 434.272 32.248H433.792ZM436.72 20.968C436.72 20.968 438.928 22.696 440.32 24.04C440.224 24.568 439.744 24.808 439.072 24.808H420.64L420.256 23.368H434.704L436.72 20.968ZM448.816 16.264C448.624 16.744 448.096 17.176 447.04 17.128C445.024 23.128 441.76 28.456 438.016 31.816L437.296 31.24C440.512 27.496 443.584 21.592 445.216 15.112L448.816 16.264ZM460.144 20.92C460.144 20.92 462.4 22.648 463.744 23.992C463.6 24.52 463.216 24.76 462.544 24.76H442.816V23.32H458.176L460.144 20.92ZM463.12 35.224C462.88 35.608 462.064 35.944 461.152 35.608C459.136 37.48 455.296 40.504 451.984 42.472L451.408 41.896C454.432 39.448 458.32 35.416 460 33.16L463.12 35.224ZM460.432 28.456C460.096 28.84 459.472 28.84 458.8 28.504C455.2 30.088 448.384 31.624 443.296 32.344L442.816 31.528C447.568 30.424 454.24 28.36 457.744 26.344L460.432 28.456ZM449.584 30.328C451.504 41.08 455.968 51.64 464.224 55.96L464.128 56.44C463.264 56.584 462.448 57.16 462.064 58.216C454.048 52.888 450.352 42.952 448.624 30.616L449.584 30.328ZM490.24 25.192L493.84 27.016C493.552 27.544 493.168 27.688 492.016 27.448C489.136 31.864 483.664 38.104 477.856 42.328L477.28 41.704C482.416 37.144 487.648 30.184 490.24 25.192ZM490 15.112L493.456 16.984C493.168 17.464 492.736 17.608 491.632 17.368C488.896 20.872 483.76 25.72 478.624 28.936L478.048 28.264C482.608 24.712 487.504 19.048 490 15.112ZM485.632 34.216L486.976 32.488L489.184 33.4C488.992 33.784 488.512 34.12 487.744 34.216V57.688C487.696 57.928 486.832 58.552 486.016 58.552H485.632V34.216ZM496.144 19.24H514.144L516.064 16.84C516.064 16.84 518.368 18.568 519.712 19.912C519.616 20.44 519.136 20.68 518.512 20.68H496.48L496.144 19.24ZM493.552 30.28H516.448L518.416 27.88C518.416 27.88 520.672 29.608 522.016 30.952C521.92 31.432 521.488 31.672 520.816 31.672H493.936L493.552 30.28ZM510.304 30.76H512.416V54.376C512.416 56.392 511.888 57.976 507.52 58.408C507.424 57.736 506.992 57.064 506.272 56.728C505.408 56.296 503.68 55.96 500.944 55.672V54.904C500.944 54.904 507.568 55.384 508.864 55.384C509.968 55.384 510.304 55.096 510.304 54.28V30.76ZM555.76 18.904H575.536V20.344H555.76V18.904ZM555.328 35.512H574.864V36.952H555.328V35.512ZM574 18.904H573.568L574.96 17.464L577.984 19.816C577.696 20.152 576.928 20.536 576.112 20.68V39.736C576.112 40.024 575.008 40.6 574.288 40.6H574V18.904ZM564.016 18.904H566.176V36.28H564.016V18.904ZM554.224 18.904V17.752V17.656L556.96 18.904H556.384V53.368C556.384 54.856 556.864 55.432 560.08 55.432H567.328C571.072 55.432 573.616 55.384 574.672 55.24C575.392 55.144 575.632 54.952 575.872 54.424C576.16 53.512 576.784 50.152 577.36 46.168H578.032L578.176 54.76C579.232 55.096 579.472 55.336 579.472 55.864C579.472 57.16 577.552 57.448 567.424 57.448H559.984C555.52 57.448 554.224 56.536 554.224 53.704V18.904ZM537.232 20.824V19.576L539.584 20.824H548.464V22.216H539.296V51.016C539.296 51.304 538.576 51.88 537.616 51.88H537.232V20.824ZM546.928 20.824H546.448L547.84 19.192L551.104 21.736C550.816 22.12 550 22.504 549.04 22.696V49.096C548.992 49.432 547.936 50.008 547.216 50.008H546.928V20.824ZM538.432 43.864H548.512V45.304H538.432V43.864Z" fill="#000637"/>
</svg>
